<?xml version="1.0" encoding="UTF-8" standalone="no"?>
<!-- Created with Inkscape (http://www.inkscape.org/) -->

<svg
   xmlns:dc="http://purl.org/dc/elements/1.1/"
   xmlns:cc="http://creativecommons.org/ns#"
   xmlns:rdf="http://www.w3.org/1999/02/22-rdf-syntax-ns#"
   xmlns:svg="http://www.w3.org/2000/svg"
   xmlns="http://www.w3.org/2000/svg"
   xmlns:xlink="http://www.w3.org/1999/xlink"
   xmlns:sodipodi="http://sodipodi.sourceforge.net/DTD/sodipodi-0.dtd"
   xmlns:inkscape="http://www.inkscape.org/namespaces/inkscape"
   id="svg2"
   version="1.1"
   inkscape:version="0.48.1 r9760"
   width="48"
   height="48"
   sodipodi:docname="skype.svg">
  <metadata
     id="metadata8">
    <rdf:RDF>
      <cc:Work
         rdf:about="">
        <dc:format>image/svg+xml</dc:format>
        <dc:type
           rdf:resource="http://purl.org/dc/dcmitype/StillImage" />
        <dc:title />
      </cc:Work>
    </rdf:RDF>
  </metadata>
  <defs
     id="defs6">
    <linearGradient
       id="linearGradient3895">
      <stop
         style="stop-color:#00aff0;stop-opacity:1;"
         offset="0"
         id="stop3897" />
      <stop
         style="stop-color:#9de0f9;stop-opacity:1;"
         offset="1"
         id="stop3899" />
    </linearGradient>
    <linearGradient
       spreadMethod="pad"
       gradientTransform="matrix(349.605,0,0,-349.605,118.089,488.526)"
       gradientUnits="userSpaceOnUse"
       id="linearGradient58"
       y2="0"
       x2="1"
       y1="0"
       x1="0">
      <stop
         offset="0"
         style="stop-color:#ffffff;stop-opacity:1"
         id="stop60" />
      <stop
         offset="1"
         style="stop-color:#00aaf1;stop-opacity:1"
         id="stop62" />
    </linearGradient>
    <clipPath
       id="clipPath50">
      <path
         id="path52"
         d="m 118.089,602.321 349.605,0 0,-227.59 -349.605,0 0,227.59 z" />
    </clipPath>
    <linearGradient
       spreadMethod="pad"
       gradientTransform="matrix(-1.53e-5,366.704,366.704,1.53e-5,298.672,235.617)"
       gradientUnits="userSpaceOnUse"
       id="linearGradient36"
       y2="0"
       x2="1"
       y1="0"
       x1="0">
      <stop
         offset="0"
         style="stop-color:#ffffff;stop-opacity:1"
         id="stop38" />
      <stop
         offset="0.80898899"
         style="stop-color:#00aaf1;stop-opacity:1"
         id="stop40" />
      <stop
         offset="1"
         style="stop-color:#00aaf1;stop-opacity:1"
         id="stop42" />
    </linearGradient>
    <clipPath
       id="clipPath18">
      <path
         id="path20"
         d="m 0,841.89 595.276,0 L 595.276,0 0,0 0,841.89 z" />
    </clipPath>
    <linearGradient
       inkscape:collect="always"
       xlink:href="#linearGradient3895"
       id="linearGradient3909"
       x1="357.84506"
       y1="248.15565"
       x2="260.07986"
       y2="626.82617"
       gradientUnits="userSpaceOnUse" />
    <filter
       inkscape:collect="always"
       id="filter4011">
      <feGaussianBlur
         inkscape:collect="always"
         stdDeviation="0.12406806"
         id="feGaussianBlur4013" />
    </filter>
    <filter
       inkscape:collect="always"
       id="filter4015">
      <feGaussianBlur
         inkscape:collect="always"
         stdDeviation="0.12406806"
         id="feGaussianBlur4017" />
    </filter>
    <filter
       inkscape:collect="always"
       id="filter4019">
      <feGaussianBlur
         inkscape:collect="always"
         stdDeviation="0.12406806"
         id="feGaussianBlur4021" />
    </filter>
    <filter
       inkscape:collect="always"
       id="filter4141">
      <feGaussianBlur
         inkscape:collect="always"
         stdDeviation="0.24829281"
         id="feGaussianBlur4143" />
    </filter>
    <filter
       inkscape:collect="always"
       id="filter4145">
      <feGaussianBlur
         inkscape:collect="always"
         stdDeviation="0.24829281"
         id="feGaussianBlur4147" />
    </filter>
    <filter
       inkscape:collect="always"
       id="filter4149"
       x="-0.0362309"
       width="1.0724618"
       y="-0.10363526"
       height="1.2072705">
      <feGaussianBlur
         inkscape:collect="always"
         stdDeviation="0.24829281"
         id="feGaussianBlur4151" />
    </filter>
    <linearGradient
       inkscape:collect="always"
       xlink:href="#linearGradient3895"
       id="linearGradient4179"
       gradientUnits="userSpaceOnUse"
       x1="357.84506"
       y1="248.15565"
       x2="260.07986"
       y2="626.82617" />
    <linearGradient
       inkscape:collect="always"
       xlink:href="#linearGradient3895"
       id="linearGradient4181"
       gradientUnits="userSpaceOnUse"
       x1="357.84506"
       y1="248.15565"
       x2="260.07986"
       y2="626.82617" />
    <linearGradient
       inkscape:collect="always"
       xlink:href="#linearGradient3895"
       id="linearGradient4183"
       gradientUnits="userSpaceOnUse"
       x1="357.84506"
       y1="248.15565"
       x2="260.07986"
       y2="626.82617" />
    <linearGradient
       inkscape:collect="always"
       xlink:href="#linearGradient3895"
       id="linearGradient4185"
       gradientUnits="userSpaceOnUse"
       x1="357.84506"
       y1="248.15565"
       x2="260.07986"
       y2="626.82617" />
    <linearGradient
       inkscape:collect="always"
       xlink:href="#linearGradient3895"
       id="linearGradient4187"
       gradientUnits="userSpaceOnUse"
       x1="357.84506"
       y1="248.15565"
       x2="260.07986"
       y2="626.82617" />
    <linearGradient
       inkscape:collect="always"
       xlink:href="#linearGradient3895"
       id="linearGradient3042"
       gradientUnits="userSpaceOnUse"
       x1="328.01306"
       y1="347.83823"
       x2="237.52396"
       y2="706.13568" />
    <linearGradient
       inkscape:collect="always"
       xlink:href="#linearGradient3895"
       id="linearGradient3044"
       gradientUnits="userSpaceOnUse"
       x1="323.88818"
       y1="374.72217"
       x2="261.10886"
       y2="664.89905" />
  </defs>
  <sodipodi:namedview
     pagecolor="#ffffff"
     bordercolor="#666666"
     borderopacity="1"
     objecttolerance="10"
     gridtolerance="10"
     guidetolerance="10"
     inkscape:pageopacity="0"
     inkscape:pageshadow="2"
     inkscape:window-width="1920"
     inkscape:window-height="1056"
     id="namedview4"
     showgrid="false"
     inkscape:zoom="6.0833333"
     inkscape:cx="22.265345"
     inkscape:cy="31.305897"
     inkscape:window-x="1280"
     inkscape:window-y="24"
     inkscape:window-maximized="1"
     inkscape:current-layer="svg2" />
  <path
     inkscape:connector-curvature="0"
     d="m 44.792447,28.750531 c 0.318212,-1.455055 0.487428,-2.96546 0.487428,-4.515854 0,-11.622475 -9.422215,-21.0449162 -21.045255,-21.0449162 -1.227099,0 -2.429459,0.1061836 -3.59906,0.3078196 -1.880919,-1.1847382 -4.106143,-1.8725596 -6.493241,-1.8725596 -6.740401,0 -12.204452,5.464503 -12.204452,12.2042262 0,2.253013 0.613041,4.361774 1.677588,6.173222 -0.279127,1.36717 -0.425864,2.782462 -0.425864,4.232208 0,11.622814 9.421989,21.045142 21.045029,21.045142 1.316451,0 2.60421,-0.121885 3.853449,-0.353117 1.718141,0.923458 3.682425,1.448277 5.769611,1.448277 6.740514,0 12.204452,-5.464051 12.204452,-12.204452 0,-1.94734 -0.458284,-3.786689 -1.269685,-5.419996"
     id="path22"
     style="fill:#00aaf1;fill-opacity:1;fill-rule:nonzero;stroke:none" />
  <g
     id="g24"
     transform="matrix(0.1129613,0,0,-0.1129613,-9.738378,71.327339)"
     style="fill:url(#linearGradient3042);fill-opacity:1;stroke:none">
    <g
       id="g26"
       style="fill:url(#linearGradient4185);fill-opacity:1;stroke:none">
      <g
         id="g32"
         style="fill:url(#linearGradient4183);fill-opacity:1;stroke:none">
        <g
           id="g34"
           style="fill:url(#linearGradient4181);fill-opacity:1;stroke:none">
          <path
             inkscape:connector-curvature="0"
             d="m 118.089,509.007 c 0,-16.6 4.433,-32.915 12.822,-47.188 l 2.862,-4.872 -1.13,-5.535 c -2.305,-11.284 -3.473,-22.897 -3.473,-34.52 0,-94.609 76.97,-171.579 171.579,-171.579 10.531,0 21.106,0.967 31.434,2.878 l 5.09,0.944 4.561,-2.451 c 13.47,-7.24 28.721,-11.067 44.104,-11.067 51.456,0 93.318,41.862 93.318,93.317 0,14.53 -3.265,28.469 -9.703,41.431 l -2.304,4.637 1.106,5.059 c 2.637,12.06 3.975,24.452 3.975,36.831 0,94.609 -76.971,171.577 -171.581,171.577 -9.819,0 -19.698,-0.844 -29.359,-2.51 l -5.568,-0.959 -4.781,3.011 c -14.864,9.362 -32.028,14.31 -49.635,14.31 -51.455,0 -93.317,-41.859 -93.317,-93.314"
             id="path44"
             style="fill:url(#linearGradient3044);fill-opacity:1;stroke:none" />
        </g>
      </g>
    </g>
  </g>
  <path
     inkscape:connector-curvature="0"
     d="m 17.920083,10.400306 0,0 c -1.769538,0.654385 -3.143939,1.608569 -4.085019,2.836007 -0.948197,1.236135 -1.429074,2.669049 -1.429074,4.258867 0,1.667873 0.458059,3.086893 1.361749,4.217636 0.889796,1.113911 2.106163,2.00382 3.615326,2.645892 1.47584,0.627613 3.331455,1.182931 5.515449,1.650704 1.606084,0.336285 2.904574,0.657886 3.861243,0.955991 0.917359,0.286018 1.672731,0.702845 2.245332,1.238395 0.546958,0.512279 0.812869,1.165422 0.812869,1.996252 0,1.051557 -0.509342,1.910402 -1.55751,2.625898 -1.072907,0.732554 -2.499156,1.104084 -4.239099,1.104084 -1.265166,0 -2.293679,-0.18311 -3.056507,-0.54436 -0.758535,-0.358652 -1.352372,-0.817727 -1.76502,-1.364121 -0.429479,-0.568195 -0.836253,-1.28934 -1.209138,-2.143441 -0.3338,-0.784516 -0.749498,-1.391909 -1.233989,-1.80241 -0.50697,-0.428575 -1.13063,-0.645574 -1.853808,-0.645574 -0.880985,0 -1.619752,0.274722 -2.196307,0.817049 -0.582428,0.547185 -0.877935,1.215803 -0.877935,1.986989 0,1.233877 0.453427,2.513276 1.347403,3.80273 0.885164,1.276688 2.050925,2.311075 3.464975,3.074806 1.977952,1.049298 4.512352,1.580894 7.534857,1.580894 2.518246,0 4.730932,-0.389039 6.576607,-1.156159 1.863523,-0.774915 3.302085,-1.86646 4.275585,-3.244136 0.977003,-1.383098 1.472451,-2.963201 1.472451,-4.696705 0,-1.448842 -0.287826,-2.695708 -0.855682,-3.705808 -0.566388,-1.006373 -1.364573,-1.849403 -2.372639,-2.505934 -0.987508,-0.642411 -2.198792,-1.195695 -3.600077,-1.644264 -1.384115,-0.442357 -2.949532,-0.851955 -4.652537,-1.217497 -1.345595,-0.311096 -2.327003,-0.551477 -2.912029,-0.713803 -0.570794,-0.157694 -1.140683,-0.378646 -1.693855,-0.656644 -0.53329,-0.266814 -0.955088,-0.587512 -1.254209,-0.952828 -0.282516,-0.344758 -0.419877,-0.745658 -0.419877,-1.225066 0,-0.781805 0.426767,-1.441725 1.30459,-2.017263 0.910807,-0.597339 2.137679,-0.900075 3.64639,-0.900075 1.624384,0 2.806298,0.272914 3.513436,0.810949 0.7286,0.553736 1.363894,1.339834 1.888713,2.336943 0.453426,0.780902 0.86212,1.323681 1.255903,1.671828 0.423379,0.374918 1.033257,0.565145 1.81269,0.565145 0.857941,0 1.585073,-0.303866 2.161402,-0.903239 0.572827,-0.595532 0.863363,-1.278722 0.863363,-2.030705 0,-0.781466 -0.22163,-1.589139 -0.658338,-2.400766 -0.43219,-0.803607 -1.120802,-1.577392 -2.046181,-2.300344 -0.918941,-0.717869 -2.088316,-1.301201 -3.475594,-1.733165 -1.379257,-0.4289144 -3.031655,-0.646139 -4.911105,-0.646139 -2.350838,0 -4.428309,0.3274748 -6.174804,0.973387"
     id="path78"
     style="fill:#ffffff;fill-opacity:1;fill-rule:nonzero;stroke:none" />
  <path
     inkscape:connector-curvature="0"
     style="fill:none;stroke:#8f8f8f;stroke-width:0.51300001;stroke-linecap:butt;stroke-linejoin:miter;stroke-miterlimit:4;stroke-opacity:0.84255317;stroke-dasharray:none;filter:url(#filter4011)"
     d="m 24.094172,9.4167242 c -2.350838,0 -4.441005,0.3228373 -6.1875,0.9687498 -1.769538,0.654385 -3.12142,1.616312 -4.0625,2.84375 -0.948197,1.236135 -1.4375,2.691432 -1.4375,4.28125 0,0.07719 0.02929,0.142625 0.03125,0.21875 0.04351,-1.499957 0.503123,-2.853872 1.40625,-4.03125 0.94108,-1.227438 2.292962,-2.189364 4.0625,-2.84375 1.746495,-0.645913 3.836662,-0.9687498 6.1875,-0.9687498 1.87945,0 3.526993,0.2273358 4.90625,0.6562498 1.387278,0.431964 2.549809,1.000881 3.46875,1.71875 0.925379,0.722952 1.63031,1.508893 2.0625,2.3125 0.379104,0.704568 0.574343,1.409698 0.625,2.09375 0.0029,-0.05205 0.03125,-0.103519 0.03125,-0.15625 0,-0.781466 -0.219542,-1.594623 -0.65625,-2.40625 -0.43219,-0.803607 -1.137121,-1.589548 -2.0625,-2.3125 -0.918941,-0.717869 -2.081472,-1.286786 -3.46875,-1.71875 -1.379257,-0.4289138 -3.0268,-0.6562498 -4.90625,-0.6562498 z"
     id="path3978" />
  <path
     inkscape:connector-curvature="0"
     style="fill:none;stroke:#8f8f8f;stroke-width:0.51300001;stroke-linecap:butt;stroke-linejoin:miter;stroke-miterlimit:4;stroke-opacity:0.84255317;stroke-dasharray:none;filter:url(#filter4019)"
     d="m 29.812922,30.385474 c -0.05941,0.964028 -0.579391,1.766414 -1.5625,2.4375 -1.072907,0.732554 -2.478807,1.09375 -4.21875,1.09375 -1.265166,0 -2.299672,-0.17 -3.0625,-0.53125 -0.758535,-0.358652 -1.368602,-0.828606 -1.78125,-1.375 -0.429479,-0.568195 -0.814615,-1.270899 -1.1875,-2.125 -0.3338,-0.784516 -0.765509,-1.401999 -1.25,-1.8125 -0.50697,-0.428575 -1.120572,-0.65625 -1.84375,-0.65625 -0.880985,0 -1.610945,0.301423 -2.1875,0.84375 -0.582428,0.547185 -0.875,1.197564 -0.875,1.96875 0,0.07166 -0.0031,0.146792 0,0.21875 0.05812,-0.665351 0.357087,-1.263426 0.875,-1.75 0.576555,-0.542327 1.306515,-0.8125 2.1875,-0.8125 0.723178,0 1.33678,0.227675 1.84375,0.65625 0.484491,0.410501 0.9162,1.027984 1.25,1.8125 0.372885,0.854101 0.758021,1.556805 1.1875,2.125 0.412648,0.546394 1.022715,1.016348 1.78125,1.375 0.762828,0.36125 1.797334,0.53125 3.0625,0.53125 1.739943,0 3.145843,-0.361196 4.21875,-1.09375 1.048168,-0.715496 1.5625,-1.573443 1.5625,-2.625 0,-0.09812 0.0074,-0.188029 0,-0.28125 z"
     id="path3972" />
  <path
     inkscape:connector-curvature="0"
     style="fill:none;stroke:#8f8f8f;stroke-width:0.51300001;stroke-linecap:butt;stroke-linejoin:miter;stroke-miterlimit:4;stroke-opacity:0.84255317;stroke-dasharray:none;filter:url(#filter4015)"
     d="m 36.500422,29.822974 c 0.0019,-0.07483 0,-0.143333 0,-0.21875 0,-1.448842 -0.275894,-2.70865 -0.84375,-3.71875 -0.566388,-1.006373 -1.366934,-1.843469 -2.375,-2.5 -0.987508,-0.642411 -2.223715,-1.207681 -3.625,-1.65625 -1.384115,-0.442357 -2.921995,-0.853208 -4.625,-1.21875 -1.345595,-0.311096 -2.352474,-0.525174 -2.9375,-0.6875 -0.570794,-0.157694 -1.134328,-0.378252 -1.6875,-0.65625 -0.53329,-0.266814 -0.950879,-0.603434 -1.25,-0.96875 -0.205407,-0.250661 -0.351312,-0.525137 -0.40625,-0.84375 -0.0014,0.03177 0,0.06157 0,0.09375 0,0.479408 0.123734,0.873992 0.40625,1.21875 0.299121,0.365316 0.71671,0.670686 1.25,0.9375 0.553172,0.277998 1.116706,0.498556 1.6875,0.65625 0.585026,0.162326 1.591905,0.407654 2.9375,0.71875 1.703005,0.365542 3.240885,0.776393 4.625,1.21875 1.401285,0.448569 2.637492,1.013839 3.625,1.65625 1.008066,0.656531 1.808612,1.493627 2.375,2.5 0.534568,0.950887 0.812008,2.127244 0.84375,3.46875 z"
     id="path3914" />
  <path
     inkscape:connector-curvature="0"
     style="fill:none;stroke:#49caff;stroke-width:0.51300001;stroke-linecap:butt;stroke-linejoin:miter;stroke-miterlimit:4;stroke-opacity:0.83829783;stroke-dasharray:none;filter:url(#filter4149)"
     d="m 35.187922,16.260474 c -0.02417,0.713499 -0.3271,1.367883 -0.875,1.9375 -0.576329,0.599373 -1.298309,0.90625 -2.15625,0.90625 -0.779433,0 -1.389121,-0.187582 -1.8125,-0.5625 -0.393783,-0.348147 -0.796574,-0.906598 -1.25,-1.6875 -0.524819,-0.997109 -1.1464,-1.790014 -1.875,-2.34375 -0.707138,-0.538035 -1.906866,-0.8125 -3.53125,-0.8125 -1.508711,0 -2.745443,0.308911 -3.65625,0.90625 -0.877823,0.575538 -1.28125,1.249445 -1.28125,2.03125 0,0.119852 -0.01729,0.233362 0,0.34375 0,-0.781805 0.403427,-1.455712 1.28125,-2.03125 0.910807,-0.597339 2.147539,-0.90625 3.65625,-0.90625 1.624384,0 2.824112,0.274465 3.53125,0.8125 0.7286,0.553736 1.350181,1.346641 1.875,2.34375 0.453426,0.780902 0.856217,1.339353 1.25,1.6875 0.423379,0.374918 1.033067,0.5625 1.8125,0.5625 0.857941,0 1.579921,-0.306877 2.15625,-0.90625 0.572827,-0.595532 0.875,-1.279267 0.875,-2.03125 0,-0.08203 0.0049,-0.167416 0,-0.25 z"
     id="path4058" />
  <path
     inkscape:connector-curvature="0"
     style="fill:none;stroke:#49caff;stroke-width:0.51300001;stroke-linecap:butt;stroke-linejoin:miter;stroke-miterlimit:4;stroke-opacity:0.83829783;stroke-dasharray:none;filter:url(#filter4141)"
     d="m 36.500422,29.416724 c -0.02982,1.670357 -0.522108,3.191132 -1.46875,4.53125 -0.9735,1.377676 -2.417727,2.475085 -4.28125,3.25 -1.845675,0.76712 -4.044254,1.15625 -6.5625,1.15625 -3.022505,0 -5.584548,-0.544452 -7.5625,-1.59375 -1.41405,-0.763731 -2.552336,-1.785812 -3.4375,-3.0625 -0.856892,-1.235964 -1.307713,-2.469996 -1.34375,-3.65625 -0.0041,0.06264 0,0.123432 0,0.1875 0,1.233877 0.449774,2.523046 1.34375,3.8125 0.885164,1.276688 2.02345,2.298769 3.4375,3.0625 1.977952,1.049298 4.539995,1.59375 7.5625,1.59375 2.518246,0 4.716825,-0.38913 6.5625,-1.15625 1.863523,-0.774915 3.30775,-1.872324 4.28125,-3.25 0.977003,-1.383098 1.46875,-2.953996 1.46875,-4.6875 0,-0.0637 0.0011,-0.124585 0,-0.1875 z"
     id="path4054" />
  <path
     inkscape:connector-curvature="0"
     style="fill:none;stroke:#49caff;stroke-width:0.51300001;stroke-linecap:butt;stroke-linejoin:miter;stroke-miterlimit:4;stroke-opacity:0.83829783;stroke-dasharray:none;filter:url(#filter4145)"
     d="m 29.812922,29.979224 c 0.0017,-0.04286 0,-0.08149 0,-0.125 0,-0.83083 -0.265542,-1.487721 -0.8125,-2 -0.572601,-0.53555 -1.332641,-0.963982 -2.25,-1.25 -0.956669,-0.298105 -2.237666,-0.601215 -3.84375,-0.9375 -2.183994,-0.467773 -4.05541,-1.028637 -5.53125,-1.65625 -1.509163,-0.642072 -2.703954,-1.542339 -3.59375,-2.65625 -0.869137,-1.087509 -1.341329,-2.445506 -1.375,-4.03125 -0.0015,0.06188 0,0.125133 0,0.1875 0,1.667873 0.47131,3.056757 1.375,4.1875 0.889796,1.113911 2.084587,2.014178 3.59375,2.65625 1.47584,0.627613 3.347256,1.188477 5.53125,1.65625 1.606084,0.336285 2.887081,0.670645 3.84375,0.96875 0.917359,0.286018 1.677399,0.6832 2.25,1.21875 0.496719,0.465226 0.768022,1.056094 0.8125,1.78125 z"
     id="path80" />
  <path
     inkscape:connector-curvature="0"
     style="fill:none;stroke:#00aaf1;stroke-width:0.51300001;stroke-linecap:butt;stroke-linejoin:miter;stroke-miterlimit:4;stroke-opacity:1;stroke-dasharray:none"
     d="m 17.920083,10.400307 0,0 c -1.769538,0.654384 -3.143939,1.608568 -4.085019,2.836006 -0.948197,1.236135 -1.429074,2.669049 -1.429074,4.258867 0,1.667873 0.458059,3.086893 1.361749,4.217636 0.889796,1.113911 2.106163,2.00382 3.615326,2.645892 1.47584,0.627613 3.331455,1.182931 5.515449,1.650704 1.606084,0.336285 2.904574,0.657886 3.861243,0.955991 0.917359,0.286018 1.672731,0.702845 2.245332,1.238395 0.546958,0.512279 0.812869,1.165422 0.812869,1.996252 0,1.051557 -0.509342,1.910402 -1.55751,2.625898 -1.072907,0.732554 -2.499156,1.104084 -4.239099,1.104084 -1.265166,0 -2.293679,-0.18311 -3.056507,-0.54436 -0.758535,-0.358652 -1.352372,-0.817727 -1.76502,-1.364121 -0.429479,-0.568195 -0.836253,-1.28934 -1.209138,-2.143441 -0.3338,-0.784516 -0.749498,-1.391909 -1.233989,-1.80241 -0.50697,-0.428575 -1.13063,-0.645574 -1.853808,-0.645574 -0.880985,0 -1.619752,0.274722 -2.196307,0.817049 -0.582428,0.547185 -0.877935,1.215803 -0.877935,1.986989 0,1.233877 0.453427,2.513276 1.347403,3.80273 0.885164,1.276688 2.050925,2.311075 3.464975,3.074806 1.977952,1.049298 4.512352,1.580894 7.534857,1.580894 2.518246,0 4.730932,-0.389039 6.576607,-1.156159 1.863523,-0.774915 3.302085,-1.86646 4.275585,-3.244136 0.977003,-1.383098 1.472451,-2.963201 1.472451,-4.696705 0,-1.448842 -0.287826,-2.695708 -0.855682,-3.705808 -0.566388,-1.006373 -1.364573,-1.849403 -2.372639,-2.505934 -0.987508,-0.642411 -2.198792,-1.195695 -3.600077,-1.644264 -1.384115,-0.442357 -2.949532,-0.851955 -4.652537,-1.217497 -1.345595,-0.311096 -2.327003,-0.551477 -2.912029,-0.713803 -0.570794,-0.157694 -1.140683,-0.378646 -1.693855,-0.656644 -0.53329,-0.266814 -0.955088,-0.587512 -1.254209,-0.952828 -0.282516,-0.344758 -0.419877,-0.745658 -0.419877,-1.225066 0,-0.781805 0.426767,-1.441725 1.30459,-2.017263 0.910807,-0.597339 2.137679,-0.900075 3.64639,-0.900075 1.624384,0 2.806298,0.272914 3.513436,0.810949 0.7286,0.553736 1.363894,1.339834 1.888713,2.336943 0.453426,0.780902 0.86212,1.323681 1.255903,1.671828 0.423379,0.374918 1.033257,0.565145 1.81269,0.565145 0.857941,0 1.585073,-0.303866 2.161402,-0.903239 0.572827,-0.595532 0.863363,-1.278722 0.863363,-2.030705 0,-0.781466 -0.22163,-1.589139 -0.658338,-2.400766 -0.43219,-0.803607 -1.120802,-1.577392 -2.046181,-2.300344 -0.918941,-0.717869 -2.088316,-1.301201 -3.475594,-1.733165 -1.379257,-0.4289142 -3.031655,-0.6461388 -4.911105,-0.6461388 -2.350838,0 -4.428309,0.3274748 -6.174804,0.9733878 z"
     id="path80-0" />
</svg>
