<?xml version="1.0" encoding="UTF-8" standalone="no"?>
<!-- Created with Inkscape (http://www.inkscape.org/) -->

<svg
   xmlns:dc="http://purl.org/dc/elements/1.1/"
   xmlns:cc="http://creativecommons.org/ns#"
   xmlns:rdf="http://www.w3.org/1999/02/22-rdf-syntax-ns#"
   xmlns:svg="http://www.w3.org/2000/svg"
   xmlns="http://www.w3.org/2000/svg"
   xmlns:xlink="http://www.w3.org/1999/xlink"
   xmlns:sodipodi="http://sodipodi.sourceforge.net/DTD/sodipodi-0.dtd"
   xmlns:inkscape="http://www.inkscape.org/namespaces/inkscape"
   id="svg2882"
   height="16"
   width="16"
   version="1.1"
   inkscape:version="0.48.1 r9760"
   sodipodi:docname="skype-24.svg">
  <defs
     id="defs9">
    <linearGradient
       spreadMethod="pad"
       gradientTransform="matrix(349.605,0,0,-349.605,118.089,488.526)"
       gradientUnits="userSpaceOnUse"
       id="linearGradient58"
       y2="0"
       x2="1"
       y1="0"
       x1="0">
      <stop
         offset="0"
         style="stop-color:#ffffff;stop-opacity:1"
         id="stop60" />
      <stop
         offset="1"
         style="stop-color:#00aaf1;stop-opacity:1"
         id="stop62" />
    </linearGradient>
    <clipPath
       id="clipPath50">
      <path
         id="path52"
         d="m 118.089,602.321 349.605,0 0,-227.59 -349.605,0 0,227.59 z"
         inkscape:connector-curvature="0" />
    </clipPath>
    <linearGradient
       spreadMethod="pad"
       gradientTransform="matrix(-1.53e-5,366.704,366.704,1.53e-5,298.672,235.617)"
       gradientUnits="userSpaceOnUse"
       id="linearGradient36"
       y2="0"
       x2="1"
       y1="0"
       x1="0">
      <stop
         offset="0"
         style="stop-color:#ffffff;stop-opacity:1"
         id="stop38" />
      <stop
         offset="0.80898899"
         style="stop-color:#00aaf1;stop-opacity:1"
         id="stop40" />
      <stop
         offset="1"
         style="stop-color:#00aaf1;stop-opacity:1"
         id="stop42" />
    </linearGradient>
    <clipPath
       id="clipPath18">
      <path
         id="path20"
         d="m 0,841.89 595.276,0 L 595.276,0 0,0 0,841.89 z"
         inkscape:connector-curvature="0" />
    </clipPath>
    <linearGradient
       inkscape:collect="always"
       xlink:href="#linearGradient36"
       id="linearGradient3073"
       gradientUnits="userSpaceOnUse"
       gradientTransform="matrix(-1.53e-5,366.704,366.704,1.53e-5,298.672,235.617)"
       spreadMethod="pad"
       x1="0"
       y1="0"
       x2="1"
       y2="0" />
    <linearGradient
       inkscape:collect="always"
       xlink:href="#linearGradient58"
       id="linearGradient3075"
       gradientUnits="userSpaceOnUse"
       gradientTransform="matrix(349.605,0,0,-349.605,118.089,488.526)"
       spreadMethod="pad"
       x1="0"
       y1="0"
       x2="1"
       y2="0" />
    <linearGradient
       inkscape:collect="always"
       xlink:href="#linearGradient36"
       id="linearGradient3095"
       gradientUnits="userSpaceOnUse"
       gradientTransform="matrix(-1.53e-5,366.704,366.704,1.53e-5,298.672,235.617)"
       spreadMethod="pad"
       x1="0"
       y1="0"
       x2="1"
       y2="0" />
    <linearGradient
       inkscape:collect="always"
       xlink:href="#linearGradient58"
       id="linearGradient3097"
       gradientUnits="userSpaceOnUse"
       gradientTransform="matrix(349.605,0,0,-349.605,118.089,488.526)"
       spreadMethod="pad"
       x1="0"
       y1="0"
       x2="1"
       y2="0" />
    <linearGradient
       inkscape:collect="always"
       xlink:href="#linearGradient36"
       id="linearGradient3116"
       gradientUnits="userSpaceOnUse"
       gradientTransform="matrix(-1.53e-5,366.704,366.704,1.53e-5,298.672,235.617)"
       spreadMethod="pad"
       x1="0"
       y1="0"
       x2="1"
       y2="0" />
    <linearGradient
       inkscape:collect="always"
       xlink:href="#linearGradient58"
       id="linearGradient3118"
       gradientUnits="userSpaceOnUse"
       gradientTransform="matrix(349.605,0,0,-349.605,118.089,488.526)"
       spreadMethod="pad"
       x1="0"
       y1="0"
       x2="1"
       y2="0" />
  </defs>
  <sodipodi:namedview
     pagecolor="#ffffff"
     bordercolor="#666666"
     borderopacity="1"
     objecttolerance="10"
     gridtolerance="10"
     guidetolerance="10"
     inkscape:pageopacity="0"
     inkscape:pageshadow="2"
     inkscape:window-width="1920"
     inkscape:window-height="1056"
     id="namedview7"
     showgrid="false"
     inkscape:zoom="18.856181"
     inkscape:cx="16.400469"
     inkscape:cy="15.741626"
     inkscape:window-x="1280"
     inkscape:window-y="24"
     inkscape:window-maximized="1"
     inkscape:current-layer="svg2882" />
  <metadata
     id="metadata10">
    <rdf:RDF>
      <cc:Work
         rdf:about="">
        <dc:format>image/svg+xml</dc:format>
        <dc:type
           rdf:resource="http://purl.org/dc/dcmitype/StillImage" />
        <dc:title></dc:title>
      </cc:Work>
    </rdf:RDF>
  </metadata>
  <g
     id="g3125"
     transform="matrix(0.70061041,0,0,0.70061041,-15.734467,7.080117)">
    <path
       style="fill:#000000;fill-opacity:0.30196078;fill-rule:nonzero;stroke:none"
       d="m 29.65809,-8.0686448 c -2.892709,0 -5.25,2.326331 -5.25,5.21875 0,0.9669032 0.261889,1.8788497 0.71875,2.6562503 -0.119791,0.5867348 -0.15625,1.190327 -0.15625,1.8125 0,4.988046 4.043108,9.0312505 9.03125,9.0312505 0.564968,0 1.088877,-0.05702 1.625,-0.15625 0.737357,0.396312 1.604263,0.625 2.5,0.625 2.892758,0 5.21875,-2.3260405 5.21875,-5.2187505 0,-0.83572 -0.183029,-1.6428 -0.53125,-2.34375 0.136564,-0.624451 0.21875,-1.272133 0.21875,-1.9375 0,-4.9879003 -4.043107,-9.0312503 -9.03125,-9.0312503 -0.526621,0 -1.060554,0.03847 -1.5625,0.125 -0.807215,-0.508442 -1.756803,-0.78125 -2.78125,-0.78125 z m 4.28125,3.34375 c 0.806584,0 1.501828,0.09718 2.09375,0.28125 0.595364,0.185382 1.105628,0.44192 1.5,0.75 0.397136,0.310262 0.689522,0.623875 0.875,0.96875 0.187423,0.348318 0.28125,0.6958764 0.28125,1.0312503 0,0.3227211 -0.129166,0.6194216 -0.375,0.875 -0.247337,0.2572267 -0.569306,0.375 -0.9375,0.375 -0.334502,0 -0.568303,-0.05785 -0.75,-0.21875 -0.168996,-0.1494106 -0.367907,-0.3836184 -0.5625,-0.71875 -0.22523,-0.4279193 -0.499814,-0.7623586 -0.8125,-1.0000003 -0.303476,-0.230903 -0.80288,-0.375 -1.5,-0.375 -0.647478,0 -1.171618,0.149896 -1.5625,0.40625 -0.376726,0.246998 -0.5625,0.5394809 -0.5625,0.8750003 0,0.2057426 0.06626,0.3520437 0.1875,0.5 0.128371,0.1567793 0.302384,0.2917439 0.53125,0.40625 0.237399,0.1193055 0.473788,0.2135741 0.71875,0.28125 0.25107,0.069663 0.672525,0.1789903 1.25,0.3125 0.730861,0.1568763 1.405993,0.3414084 2,0.53125 0.601375,0.192508 1.138701,0.443053 1.5625,0.71875 0.432622,0.281757 0.756929,0.630606 1,1.0625 0.243701,0.433495 0.375,0.971965 0.375,1.59375 0,0.74395 -0.20571,1.40643 -0.625,2 -0.417787,0.591243 -1.044001,1.0736881 -1.84375,1.4062501 -0.79209,0.329217 -1.73177,0.5 -2.8125,0.5 -1.297139,0 -2.401142,-0.237184 -3.25,-0.6875 -0.606854,-0.327763 -1.088873,-0.7645961 -1.46875,-1.3125001 -0.383659,-0.553381 -0.59375,-1.095469 -0.59375,-1.625 0,-0.330962 0.125045,-0.64017 0.375,-0.875 0.247434,-0.232745 0.559416,-0.34375 0.9375,-0.34375 0.310359,0 0.594928,0.097323 0.8125,0.28125 0.207924,0.176171 0.387997,0.444567 0.53125,0.78125 0.160028,0.366546 0.315685,0.662403 0.5,0.90625 0.177092,0.23449 0.455717,0.439831 0.78125,0.59375 0.327375,0.155038 0.769541,0.21875 1.3125,0.21875 0.746714,0 1.352052,-0.154367 1.8125,-0.46875 0.449832,-0.307062 0.65625,-0.673714 0.65625,-1.125 0,-0.356559 -0.109017,-0.623901 -0.34375,-0.84375 -0.245737,-0.229837 -0.575057,-0.408502 -0.96875,-0.53125 -0.410564,-0.127935 -0.966983,-0.26193 -1.65625,-0.40625 -0.937282,-0.200749 -1.741629,-0.449403 -2.375,-0.71875 -0.647672,-0.275551 -1.149385,-0.646954 -1.53125,-1.125 -0.387828,-0.4852694 -0.59375,-1.0967156 -0.59375,-1.8125 0,-0.6822859 0.218072,-1.3132503 0.625,-1.8437503 0.403874,-0.526767 0.990585,-0.937914 1.75,-1.21875 0.749526,-0.2772 1.647364,-0.40625 2.65625,-0.40625 z"
       id="path3123"
       inkscape:connector-curvature="0" />
    <path
       inkscape:connector-curvature="0"
       id="path22"
       d="m 29.65809,-8.4929088 c -2.892709,0 -5.25,2.326331 -5.25,5.21875 0,0.9669032 0.261889,1.8788497 0.71875,2.6562503 -0.119791,0.5867348 -0.15625,1.190327 -0.15625,1.8125 0,4.988046 4.043108,9.0312505 9.03125,9.0312505 0.564968,0 1.088877,-0.05702 1.625,-0.15625 0.737357,0.396312 1.604263,0.625 2.5,0.625 2.892758,0 5.21875,-2.3260405 5.21875,-5.2187505 0,-0.83572 -0.183029,-1.6428 -0.53125,-2.34375 0.136564,-0.624451 0.21875,-1.272133 0.21875,-1.9375 0,-4.9879003 -4.043107,-9.0312503 -9.03125,-9.0312503 -0.526621,0 -1.060554,0.03847 -1.5625,0.125 -0.807215,-0.508442 -1.756803,-0.78125 -2.78125,-0.78125 z m 4.28125,3.34375 c 0.806584,0 1.501828,0.09718 2.09375,0.28125 0.595364,0.185382 1.105628,0.44192 1.5,0.75 0.397136,0.310262 0.689522,0.623875 0.875,0.96875 0.187423,0.348318 0.28125,0.6958764 0.28125,1.0312503 0,0.3227211 -0.129166,0.6194216 -0.375,0.875 -0.247337,0.2572267 -0.569306,0.375 -0.9375,0.375 -0.334502,0 -0.568303,-0.05785 -0.75,-0.21875 -0.168996,-0.1494106 -0.367907,-0.3836184 -0.5625,-0.71875 -0.22523,-0.4279193 -0.499814,-0.7623586 -0.8125,-1.0000003 -0.303476,-0.230903 -0.80288,-0.375 -1.5,-0.375 -0.647478,0 -1.171618,0.149896 -1.5625,0.40625 -0.376726,0.246998 -0.5625,0.5394809 -0.5625,0.8750003 0,0.2057426 0.06626,0.3520437 0.1875,0.5 0.128371,0.1567793 0.302384,0.2917439 0.53125,0.40625 0.237399,0.1193055 0.473788,0.2135741 0.71875,0.28125 0.25107,0.069663 0.672525,0.1789903 1.25,0.3125 0.730861,0.1568763 1.405993,0.3414084 2,0.53125 0.601375,0.192508 1.138701,0.443053 1.5625,0.71875 0.432622,0.281757 0.756929,0.630606 1,1.0625 0.243701,0.433495 0.375,0.971965 0.375,1.59375 0,0.74395 -0.20571,1.40643 -0.625,2 -0.417787,0.591243 -1.044001,1.073688 -1.84375,1.40625 -0.79209,0.329217 -1.73177,0.5 -2.8125,0.5 -1.297139,0 -2.401142,-0.237184 -3.25,-0.6875 -0.606854,-0.327763 -1.088873,-0.764596 -1.46875,-1.3125 -0.383659,-0.553381 -0.59375,-1.095469 -0.59375,-1.625 0,-0.330962 0.125045,-0.64017 0.375,-0.875 0.247434,-0.232745 0.559416,-0.34375 0.9375,-0.34375 0.310359,0 0.594928,0.097323 0.8125,0.28125 0.207924,0.176171 0.387997,0.444567 0.53125,0.78125 0.160028,0.366546 0.315685,0.662403 0.5,0.90625 0.177092,0.23449 0.455717,0.439831 0.78125,0.59375 0.327375,0.155038 0.769541,0.21875 1.3125,0.21875 0.746714,0 1.352052,-0.154367 1.8125,-0.46875 0.449832,-0.307062 0.65625,-0.673714 0.65625,-1.125 0,-0.356559 -0.109017,-0.623901 -0.34375,-0.84375 -0.245737,-0.229837 -0.575057,-0.408502 -0.96875,-0.53125 -0.410564,-0.127935 -0.966983,-0.26193 -1.65625,-0.40625 -0.937282,-0.200749 -1.741629,-0.449403 -2.375,-0.71875 -0.647672,-0.275551 -1.149385,-0.646954 -1.53125,-1.125 -0.387828,-0.4852694 -0.59375,-1.0967156 -0.59375,-1.8125 0,-0.6822859 0.218072,-1.3132503 0.625,-1.8437503 0.403874,-0.526767 0.990585,-0.937914 1.75,-1.21875 0.749526,-0.2772 1.647364,-0.40625 2.65625,-0.40625 z"
       style="fill:#dfdbd2;fill-opacity:1;fill-rule:nonzero;stroke:none" />
  </g>
</svg>
